<svg xmlns="http://www.w3.org/2000/svg" xmlns:xlink="http://www.w3.org/1999/xlink" width="300" zoomAndPan="magnify" viewBox="0 0 224.87999 225" height="300" preserveAspectRatio="xMidYMid meet" version="1.0"><defs><clipPath id="0734765d1a"><path d="M 13.027344 32.101562 L 211.671875 32.101562 L 211.671875 193 L 13.027344 193 Z M 13.027344 32.101562 " clip-rule="nonzero"/></clipPath></defs><g clip-path="url(#0734765d1a)"><path fill="#ffffff" d="M 198.394531 163.25 L 198.394531 152.25 C 198.394531 150.296875 197.578125 148.527344 196.097656 147.273438 C 194.609375 146.011719 192.738281 145.484375 190.84375 145.792969 L 177.339844 147.925781 C 175.933594 134.792969 164.050781 130.613281 153.488281 126.902344 C 150.347656 125.796875 147.101562 124.65625 144.253906 123.328125 C 140.519531 121.585938 138.296875 118.089844 138.296875 113.976562 L 138.296875 112.113281 C 143.40625 108.222656 147.109375 102.578125 148.503906 96.082031 L 150.246094 96.082031 C 155.371094 96.082031 159.535156 91.914062 159.535156 86.792969 L 159.535156 78.910156 C 159.535156 78.863281 159.53125 78.816406 159.53125 78.773438 C 159.53125 78.75 159.535156 78.726562 159.535156 78.707031 C 159.539062 76.835938 159.570312 75.007812 159.605469 73.238281 C 159.863281 59.515625 160.105469 46.542969 141.632812 44.480469 L 144.160156 40.902344 C 145.351562 39.199219 145.503906 36.992188 144.546875 35.128906 C 143.570312 33.246094 141.714844 32.125 139.59375 32.125 L 116.90625 32.125 C 108.042969 32.125 99.703125 34.953125 93.429688 40.097656 C 86.578125 45.710938 82.804688 53.730469 82.804688 62.667969 L 82.804688 86.800781 C 82.804688 91.921875 86.972656 96.089844 92.09375 96.089844 L 93.835938 96.089844 C 95.246094 102.652344 99.007812 108.347656 104.199219 112.246094 L 104.199219 113.984375 C 104.199219 118.097656 101.972656 121.59375 98.246094 123.335938 C 95.394531 124.664062 92.148438 125.804688 89.003906 126.910156 C 78.445312 130.621094 66.5625 134.800781 65.15625 147.933594 L 51.667969 145.804688 C 49.757812 145.496094 47.882812 146.027344 46.398438 147.285156 C 44.914062 148.539062 44.101562 150.304688 44.101562 152.261719 L 44.101562 163.253906 C 43.015625 163.539062 41.980469 164.023438 41.046875 164.707031 C 39.101562 166.132812 37.828125 168.230469 37.46875 170.605469 C 37.09375 172.992188 37.671875 175.378906 39.09375 177.324219 C 40.515625 179.269531 42.613281 180.546875 44.996094 180.921875 L 119.839844 192.730469 C 120.296875 192.804688 120.765625 192.839844 121.238281 192.839844 C 121.757812 192.839844 122.28125 192.796875 122.808594 192.707031 L 197.503906 180.921875 C 202.414062 180.152344 205.796875 175.53125 205.042969 170.601562 C 204.464844 166.941406 201.765625 164.136719 198.394531 163.25 Z M 191.820312 151.929688 C 191.914062 151.914062 191.957031 151.90625 192.082031 152.015625 C 192.15625 152.074219 192.183594 152.097656 192.183594 152.253906 L 192.183594 163.46875 L 124.359375 174.167969 L 124.359375 167.253906 C 124.359375 164.539062 126.300781 162.265625 128.980469 161.847656 Z M 153.332031 86.792969 C 153.332031 88.492188 151.949219 89.875 150.246094 89.875 L 149.113281 89.875 L 149.113281 75.828125 L 150.246094 75.828125 C 151.949219 75.828125 153.332031 77.210938 153.332031 78.914062 Z M 93.226562 89.875 L 92.09375 89.875 C 90.390625 89.875 89.007812 88.492188 89.007812 86.792969 L 89.007812 78.910156 C 89.007812 77.207031 90.390625 75.824219 92.09375 75.824219 L 93.226562 75.824219 Z M 94.046875 69.621094 L 92.097656 69.621094 C 91.015625 69.621094 89.980469 69.804688 89.011719 70.148438 L 89.011719 62.664062 C 89.011719 46.6875 103.042969 38.328125 116.90625 38.328125 L 138.378906 38.328125 L 135.945312 41.777344 C 134.777344 43.433594 134.59375 45.511719 135.449219 47.347656 C 136.296875 49.160156 137.992188 50.359375 140.019531 50.558594 C 152.382812 51.625 153.570312 57.109375 153.445312 70.191406 C 152.445312 69.824219 151.371094 69.625 150.246094 69.625 L 148.296875 69.625 C 146.683594 65.734375 142.84375 62.988281 138.371094 62.988281 L 136.367188 62.988281 C 134.804688 62.988281 133.519531 62.59375 132.207031 61.71875 L 128.78125 59.425781 C 124.085938 56.285156 118.253906 56.285156 113.5625 59.425781 L 110.132812 61.722656 C 108.832031 62.59375 107.550781 62.988281 105.980469 62.988281 L 103.976562 62.988281 C 99.503906 62.984375 95.660156 65.730469 94.046875 69.621094 Z M 99.4375 90.335938 L 99.4375 73.726562 C 99.4375 71.226562 101.472656 69.191406 103.972656 69.191406 L 105.976562 69.191406 C 108.777344 69.191406 111.273438 68.433594 113.589844 66.875 L 117.015625 64.582031 C 119.617188 62.839844 122.726562 62.839844 125.328125 64.582031 L 128.753906 66.875 C 131.089844 68.4375 133.578125 69.191406 136.367188 69.191406 L 138.371094 69.191406 C 140.875 69.191406 142.910156 71.226562 142.910156 73.726562 L 142.910156 90.335938 C 142.910156 97.554688 139.273438 103.945312 133.734375 107.761719 C 133.558594 107.859375 133.386719 107.96875 133.226562 108.097656 C 129.921875 110.242188 125.984375 111.492188 121.761719 111.492188 L 120.582031 111.492188 C 116.425781 111.492188 112.542969 110.28125 109.269531 108.195312 C 109.097656 108.054688 108.914062 107.9375 108.71875 107.839844 C 103.121094 104.027344 99.4375 97.601562 99.4375 90.335938 Z M 135.898438 124.621094 C 133.234375 130.25 127.5625 133.914062 121.253906 133.914062 C 114.9375 133.914062 109.261719 130.246094 106.609375 124.617188 C 108.707031 122.144531 109.996094 119.082031 110.324219 115.695312 C 113.496094 116.984375 116.957031 117.703125 120.585938 117.703125 L 121.765625 117.703125 C 125.449219 117.703125 128.964844 116.964844 132.175781 115.636719 C 132.488281 119.050781 133.785156 122.136719 135.898438 124.621094 Z M 91.0625 132.761719 C 94.34375 131.609375 97.738281 130.414062 100.867188 128.957031 C 101.136719 128.832031 101.394531 128.691406 101.652344 128.554688 C 105.550781 135.601562 113.003906 140.121094 121.25 140.121094 C 129.488281 140.121094 136.941406 135.601562 140.847656 128.554688 C 141.101562 128.691406 141.359375 128.828125 141.625 128.953125 C 144.757812 130.40625 148.152344 131.601562 151.433594 132.753906 C 163.0625 136.84375 170.382812 140.066406 171.195312 148.890625 L 128.015625 155.707031 C 125.324219 156.128906 122.980469 157.429688 121.25 159.289062 C 119.523438 157.429688 117.179688 156.128906 114.484375 155.707031 L 71.300781 148.886719 C 72.113281 140.074219 79.4375 136.847656 91.0625 132.761719 Z M 50.308594 152.253906 C 50.308594 152.097656 50.339844 152.074219 50.410156 152.015625 C 50.535156 151.910156 50.574219 151.914062 50.695312 151.929688 L 113.515625 161.847656 C 116.199219 162.269531 118.148438 164.539062 118.148438 167.253906 L 118.148438 174.167969 L 50.308594 163.464844 Z M 196.535156 174.78125 L 121.816406 186.566406 C 121.800781 186.570312 121.78125 186.570312 121.765625 186.574219 C 121.4375 186.632812 121.128906 186.636719 120.824219 186.585938 L 45.960938 174.78125 C 45.960938 174.78125 45.957031 174.78125 45.957031 174.78125 C 45.210938 174.664062 44.554688 174.265625 44.109375 173.65625 C 43.664062 173.050781 43.484375 172.304688 43.601562 171.546875 C 43.714844 170.804688 44.113281 170.152344 44.71875 169.710938 C 45.203125 169.351562 45.777344 169.164062 46.371094 169.164062 C 46.519531 169.164062 46.664062 169.175781 46.8125 169.199219 L 120.769531 180.871094 C 120.785156 180.875 120.800781 180.871094 120.816406 180.875 C 120.960938 180.894531 121.105469 180.910156 121.253906 180.910156 C 121.402344 180.910156 121.550781 180.894531 121.695312 180.875 C 121.710938 180.871094 121.726562 180.875 121.742188 180.871094 L 195.683594 169.199219 C 197.222656 168.960938 198.667969 170.015625 198.90625 171.546875 C 199.140625 173.085938 198.078125 174.535156 196.535156 174.78125 Z M 58.828125 70.699219 C 58.828125 62.292969 51.992188 55.453125 43.585938 55.453125 C 35.183594 55.453125 28.351562 62.292969 28.351562 70.699219 C 28.351562 79.105469 35.183594 85.945312 43.585938 85.945312 C 51.992188 85.945312 58.828125 79.105469 58.828125 70.699219 Z M 34.558594 70.699219 C 34.558594 65.71875 38.609375 61.664062 43.585938 61.664062 C 48.566406 61.664062 52.621094 65.71875 52.621094 70.699219 C 52.621094 75.683594 48.566406 79.734375 43.585938 79.734375 C 38.609375 79.734375 34.558594 75.683594 34.558594 70.699219 Z M 202.628906 80.664062 C 202.929688 80.101562 203.300781 79.5625 203.75 79.035156 C 204.226562 78.476562 204.722656 77.925781 205.199219 77.394531 C 208.46875 73.742188 211.847656 69.96875 211.847656 61.960938 C 211.847656 49.933594 202.054688 40.148438 190.019531 40.148438 C 177.984375 40.148438 168.191406 49.933594 168.191406 61.960938 C 168.191406 69.96875 171.570312 73.742188 174.839844 77.394531 C 175.316406 77.925781 175.804688 78.46875 176.289062 79.035156 C 176.738281 79.5625 177.109375 80.105469 177.410156 80.667969 C 175.546875 81.941406 174.324219 84.082031 174.324219 86.5 C 174.324219 89.328125 175.992188 91.765625 178.398438 92.898438 L 178.398438 94.316406 C 178.398438 98.144531 181.511719 101.265625 185.34375 101.265625 L 194.699219 101.265625 C 198.527344 101.265625 201.644531 98.148438 201.644531 94.316406 L 201.644531 92.898438 C 204.050781 91.765625 205.71875 89.328125 205.71875 86.5 C 205.714844 84.074219 204.488281 81.9375 202.628906 80.664062 Z M 195.433594 94.308594 C 195.433594 94.710938 195.09375 95.046875 194.695312 95.046875 L 185.339844 95.046875 C 184.941406 95.046875 184.601562 94.710938 184.601562 94.308594 L 184.601562 93.570312 L 195.433594 93.570312 Z M 198.636719 87.363281 L 181.398438 87.363281 C 180.9375 87.363281 180.527344 86.953125 180.527344 86.492188 C 180.527344 86.027344 180.925781 85.632812 181.398438 85.632812 L 198.636719 85.632812 C 199.105469 85.632812 199.507812 86.027344 199.507812 86.492188 C 199.507812 86.957031 199.097656 87.363281 198.636719 87.363281 Z M 200.574219 73.246094 C 200.074219 73.804688 199.554688 74.382812 199.027344 75 C 197.867188 76.355469 196.984375 77.839844 196.382812 79.425781 L 193.121094 79.425781 L 193.121094 69.375 L 197.734375 64.769531 C 198.945312 63.558594 198.949219 61.59375 197.738281 60.382812 C 196.527344 59.171875 194.5625 59.167969 193.351562 60.378906 L 190.019531 63.707031 L 186.6875 60.378906 C 185.476562 59.167969 183.507812 59.171875 182.300781 60.382812 C 181.089844 61.59375 181.09375 63.5625 182.304688 64.769531 L 186.917969 69.375 L 186.917969 79.425781 L 183.65625 79.425781 C 183.054688 77.839844 182.171875 76.355469 181.011719 75 C 180.484375 74.382812 179.964844 73.804688 179.46875 73.246094 C 176.421875 69.839844 174.40625 67.589844 174.40625 61.953125 C 174.40625 53.347656 181.410156 46.347656 190.023438 46.347656 C 198.636719 46.347656 205.640625 53.347656 205.640625 61.953125 C 205.636719 67.59375 203.621094 69.839844 200.574219 73.246094 Z M 41.21875 101.257812 L 45.964844 101.257812 C 47.925781 101.257812 49.644531 100.007812 50.234375 98.152344 L 51.097656 95.5 C 52.738281 95 54.316406 94.34375 55.8125 93.542969 L 58.28125 94.792969 C 60.039062 95.707031 62.148438 95.378906 63.535156 93.972656 L 66.871094 90.636719 C 68.25 89.257812 68.589844 87.164062 67.703125 85.398438 L 66.4375 82.925781 C 67.238281 81.429688 67.890625 79.851562 68.386719 78.210938 L 71.027344 77.347656 C 72.894531 76.75 74.152344 75.027344 74.152344 73.0625 L 74.152344 68.328125 C 74.152344 66.398438 72.917969 64.679688 71.078125 64.054688 C 71.066406 64.050781 71.054688 64.046875 71.039062 64.042969 L 68.390625 63.183594 C 67.898438 61.542969 67.242188 59.960938 66.4375 58.464844 L 67.714844 55.964844 C 68.585938 54.226562 68.246094 52.128906 66.867188 50.753906 L 63.519531 47.40625 C 62.125 46.015625 60.019531 45.6875 58.304688 46.582031 L 55.808594 47.847656 C 54.304688 47.046875 52.730469 46.394531 51.097656 45.902344 L 50.234375 43.253906 C 49.636719 41.390625 47.921875 40.140625 45.960938 40.140625 L 41.21875 40.140625 C 39.257812 40.140625 37.539062 41.390625 36.949219 43.242188 L 36.082031 45.902344 C 34.449219 46.394531 32.871094 47.046875 31.371094 47.847656 L 28.902344 46.597656 C 27.15625 45.6875 25.050781 46.015625 23.65625 47.40625 L 20.308594 50.753906 C 18.929688 52.132812 18.589844 54.226562 19.476562 55.992188 L 20.746094 58.472656 C 19.941406 59.957031 19.289062 61.53125 18.792969 63.183594 L 16.140625 64.042969 C 16.128906 64.046875 16.117188 64.050781 16.101562 64.054688 C 14.261719 64.679688 13.027344 66.398438 13.027344 68.328125 L 13.027344 73.0625 C 13.027344 75.027344 14.28125 76.75 16.136719 77.34375 L 18.789062 78.210938 C 19.285156 79.855469 19.941406 81.4375 20.742188 82.917969 L 19.460938 85.421875 C 18.589844 87.160156 18.929688 89.257812 20.308594 90.632812 L 23.644531 93.96875 C 25.03125 95.375 27.136719 95.703125 28.871094 94.804688 L 31.367188 93.539062 C 32.859375 94.335938 34.429688 94.988281 36.082031 95.492188 L 36.941406 98.132812 C 37.539062 100.003906 39.257812 101.257812 41.21875 101.257812 Z M 33.660156 87.714844 C 32.324219 86.941406 30.714844 86.898438 29.351562 87.605469 L 27.164062 88.714844 L 25.570312 87.117188 L 26.699219 84.910156 C 27.382812 83.539062 27.339844 81.9375 26.5625 80.597656 C 25.675781 79.089844 24.992188 77.453125 24.542969 75.738281 C 24.15625 74.226562 23.039062 73.046875 21.550781 72.582031 L 19.238281 71.828125 L 19.238281 69.570312 L 21.566406 68.8125 C 23.046875 68.347656 24.15625 67.164062 24.535156 65.675781 C 24.992188 63.941406 25.675781 62.304688 26.574219 60.773438 C 27.335938 59.457031 27.382812 57.859375 26.683594 56.460938 L 25.566406 54.277344 L 27.160156 52.679688 L 29.347656 53.789062 C 30.710938 54.492188 32.316406 54.453125 33.65625 53.675781 C 35.1875 52.78125 36.839844 52.101562 38.554688 51.648438 C 38.570312 51.644531 38.582031 51.640625 38.597656 51.636719 C 40.058594 51.230469 41.210938 50.132812 41.695312 48.683594 L 42.453125 46.347656 L 44.707031 46.347656 L 45.472656 48.707031 C 45.949219 50.132812 47.101562 51.234375 48.5625 51.636719 C 48.578125 51.640625 48.589844 51.644531 48.605469 51.648438 C 50.320312 52.101562 51.972656 52.78125 53.507812 53.679688 C 54.84375 54.453125 56.449219 54.492188 57.8125 53.789062 L 60 52.679688 L 61.59375 54.277344 L 60.464844 56.488281 C 59.773438 57.875 59.828125 59.480469 60.613281 60.800781 C 61.496094 62.320312 62.171875 63.957031 62.621094 65.660156 C 63.007812 67.167969 64.117188 68.347656 65.59375 68.816406 L 67.925781 69.574219 L 67.925781 71.832031 L 65.609375 72.585938 C 64.121094 73.054688 63.003906 74.230469 62.625 75.722656 C 62.171875 77.445312 61.492188 79.082031 60.609375 80.601562 C 59.824219 81.917969 59.765625 83.53125 60.472656 84.9375 L 61.589844 87.121094 L 59.996094 88.71875 L 57.820312 87.613281 C 56.460938 86.898438 54.847656 86.9375 53.5 87.71875 C 51.976562 88.605469 50.328125 89.292969 48.597656 89.757812 C 47.117188 90.148438 45.949219 91.242188 45.460938 92.714844 L 44.703125 95.046875 L 42.449219 95.046875 L 41.683594 92.691406 C 41.199219 91.230469 40.019531 90.132812 38.566406 89.757812 C 36.847656 89.292969 35.191406 88.605469 33.660156 87.714844 Z M 33.660156 87.714844 " fill-opacity="1" fill-rule="nonzero"/></g></svg>