<svg xmlns="http://www.w3.org/2000/svg" xmlns:xlink="http://www.w3.org/1999/xlink" width="300" zoomAndPan="magnify" viewBox="0 0 224.87999 225" height="300" preserveAspectRatio="xMidYMid meet" version="1.0"><defs><clipPath id="58a24bb37b"><path d="M 12.695312 13.378906 L 212.089844 13.378906 L 212.089844 211.273438 L 12.695312 211.273438 Z M 12.695312 13.378906 " clip-rule="nonzero"/></clipPath></defs><g clip-path="url(#58a24bb37b)"><path fill="#ffffff" d="M 149.507812 92.136719 C 149.507812 86.183594 144.667969 81.339844 138.714844 81.339844 C 132.761719 81.339844 127.921875 86.179688 127.921875 92.136719 C 127.921875 95.371094 129.355469 98.273438 131.617188 100.257812 C 129.183594 101.515625 127.117188 103.410156 125.636719 105.773438 C 124.160156 104.523438 122.507812 103.480469 120.71875 102.691406 C 124.199219 100.136719 126.464844 96.015625 126.464844 91.378906 C 126.464844 83.644531 120.171875 77.351562 112.441406 77.351562 C 104.707031 77.351562 98.414062 83.644531 98.414062 91.378906 C 98.414062 96.015625 100.679688 100.136719 104.160156 102.691406 C 102.371094 103.484375 100.714844 104.527344 99.242188 105.773438 C 97.761719 103.410156 95.695312 101.515625 93.261719 100.257812 C 95.523438 98.28125 96.957031 95.371094 96.957031 92.136719 C 96.957031 86.183594 92.117188 81.339844 86.164062 81.339844 C 80.214844 81.339844 75.375 86.179688 75.375 92.136719 C 75.375 95.375 76.808594 98.285156 79.082031 100.265625 C 74.125 102.839844 70.726562 108.015625 70.726562 113.972656 L 70.726562 127.644531 C 70.726562 128.738281 71.441406 129.695312 72.484375 130.019531 C 77.261719 131.488281 81.964844 132.222656 86.546875 132.222656 C 88.375 132.222656 90.183594 132.105469 91.964844 131.871094 L 91.964844 140.410156 C 91.964844 141.496094 92.679688 142.460938 93.722656 142.785156 C 100.265625 144.792969 106.683594 145.800781 112.945312 145.800781 C 119.226562 145.800781 125.34375 144.785156 131.253906 142.757812 C 132.253906 142.414062 132.929688 141.472656 132.929688 140.410156 L 132.929688 131.789062 C 134.992188 132.078125 137.042969 132.222656 139.066406 132.222656 C 143.671875 132.222656 148.160156 131.480469 152.488281 129.996094 C 153.488281 129.652344 154.164062 128.707031 154.164062 127.644531 L 154.164062 113.972656 C 154.164062 108.015625 150.765625 102.835938 145.808594 100.265625 C 148.074219 98.285156 149.507812 95.375 149.507812 92.136719 Z M 138.71875 86.304688 C 141.933594 86.304688 144.546875 88.921875 144.546875 92.136719 C 144.546875 95.351562 141.933594 97.960938 138.71875 97.960938 C 135.503906 97.960938 132.890625 95.347656 132.890625 92.136719 C 132.890625 88.925781 135.503906 86.304688 138.71875 86.304688 Z M 112.441406 82.3125 C 117.4375 82.3125 121.5 86.375 121.5 91.375 C 121.5 96.371094 117.4375 100.433594 112.441406 100.433594 C 107.441406 100.433594 103.378906 96.371094 103.378906 91.375 C 103.378906 86.375 107.441406 82.3125 112.441406 82.3125 Z M 86.160156 86.304688 C 89.375 86.304688 91.988281 88.921875 91.988281 92.136719 C 91.988281 95.351562 89.371094 97.960938 86.160156 97.960938 C 82.949219 97.960938 80.335938 95.347656 80.335938 92.136719 C 80.335938 88.925781 82.949219 86.304688 86.160156 86.304688 Z M 75.6875 125.773438 L 75.6875 113.972656 C 75.6875 108.199219 80.390625 103.496094 86.164062 103.496094 C 90.25 103.496094 94.003906 105.976562 95.691406 109.648438 C 93.34375 112.980469 91.960938 117.035156 91.960938 121.410156 L 91.960938 126.851562 C 86.761719 127.636719 81.304688 127.277344 75.6875 125.773438 Z M 127.957031 138.601562 C 118.183594 141.582031 107.761719 141.566406 96.921875 138.546875 L 96.921875 121.414062 C 96.921875 112.855469 103.882812 105.898438 112.441406 105.898438 C 120.996094 105.898438 127.957031 112.855469 127.957031 121.414062 Z M 149.191406 113.972656 L 149.191406 125.828125 C 143.996094 127.332031 138.535156 127.644531 132.921875 126.765625 L 132.921875 121.414062 C 132.921875 117.039062 131.539062 112.984375 129.191406 109.652344 C 130.882812 105.980469 134.632812 103.5 138.71875 103.5 C 144.492188 103.496094 149.191406 108.199219 149.191406 113.972656 Z M 193.035156 93.394531 C 183.332031 93.394531 175.300781 100.660156 174.082031 110.035156 L 167.238281 110.035156 C 166.808594 96.679688 161.582031 84.519531 153.222656 75.214844 L 166.097656 62.359375 C 168.136719 63.734375 170.59375 64.535156 173.234375 64.535156 C 180.300781 64.535156 186.050781 58.785156 186.050781 51.71875 C 186.050781 44.652344 180.296875 38.90625 173.230469 38.90625 C 166.164062 38.90625 160.410156 44.65625 160.410156 51.722656 C 160.410156 54.359375 161.210938 56.808594 162.578125 58.847656 L 149.734375 71.679688 C 140.507812 63.101562 128.335938 57.65625 114.917969 57.050781 L 114.917969 43.636719 C 122.132812 42.449219 127.65625 36.167969 127.65625 28.621094 C 127.65625 20.226562 120.832031 13.398438 112.433594 13.398438 C 104.039062 13.398438 97.214844 20.226562 97.214844 28.621094 C 97.214844 36.167969 102.738281 42.449219 109.953125 43.636719 L 109.953125 57.050781 C 96.53125 57.652344 84.347656 63.105469 75.121094 71.691406 L 45.605469 42.167969 C 46.976562 40.128906 47.777344 37.675781 47.777344 35.035156 C 47.777344 27.96875 42.023438 22.21875 34.960938 22.21875 C 27.894531 22.21875 22.144531 27.96875 22.144531 35.035156 C 22.144531 42.101562 27.894531 47.855469 34.960938 47.855469 C 37.601562 47.855469 40.054688 47.050781 42.09375 45.683594 L 71.648438 75.238281 C 63.296875 84.535156 58.074219 96.691406 57.644531 110.039062 L 50.800781 110.039062 C 49.582031 100.664062 41.550781 93.398438 31.847656 93.398438 C 21.300781 93.394531 12.722656 101.972656 12.722656 112.515625 C 12.722656 123.058594 21.300781 131.640625 31.84375 131.640625 C 41.546875 131.640625 49.578125 124.375 50.796875 115 L 57.703125 115 C 58.457031 128.121094 63.84375 140.015625 72.246094 149.078125 L 40.671875 180.613281 C 38.632812 179.242188 36.175781 178.4375 33.535156 178.4375 C 26.46875 178.4375 20.714844 184.1875 20.714844 191.257812 C 20.714844 198.324219 26.46875 204.074219 33.535156 204.074219 C 40.601562 204.074219 46.351562 198.324219 46.351562 191.257812 C 46.351562 188.621094 45.554688 186.171875 44.183594 184.132812 L 75.789062 152.566406 C 84.933594 160.804688 96.855469 166.011719 109.960938 166.601562 L 109.960938 181.398438 C 102.746094 182.585938 97.222656 188.867188 97.222656 196.414062 C 97.222656 204.8125 104.046875 211.636719 112.445312 211.636719 C 120.839844 211.636719 127.667969 204.8125 127.667969 196.414062 C 127.667969 188.867188 122.140625 182.585938 114.925781 181.398438 L 114.925781 166.597656 C 128 166.007812 139.898438 160.824219 149.03125 152.625 L 161.117188 164.710938 C 159.746094 166.75 158.945312 169.203125 158.945312 171.84375 C 158.945312 178.910156 164.699219 184.660156 171.765625 184.660156 C 178.832031 184.660156 184.578125 178.910156 184.578125 171.84375 C 184.578125 164.773438 178.828125 159.023438 171.765625 159.023438 C 169.125 159.023438 166.671875 159.828125 164.632812 161.195312 L 152.574219 149.140625 C 161.011719 140.070312 166.421875 128.148438 167.175781 115 L 174.082031 115 C 175.300781 124.375 183.332031 131.640625 193.035156 131.640625 C 203.578125 131.640625 212.15625 123.0625 212.15625 112.515625 C 212.15625 101.96875 203.578125 93.394531 193.035156 93.394531 Z M 173.230469 43.871094 C 177.558594 43.871094 181.082031 47.390625 181.082031 51.722656 C 181.082031 56.054688 177.5625 59.574219 173.230469 59.574219 C 168.898438 59.574219 165.375 56.054688 165.375 51.722656 C 165.375 47.390625 168.902344 43.871094 173.230469 43.871094 Z M 102.183594 28.621094 C 102.183594 22.964844 106.785156 18.363281 112.441406 18.363281 C 118.097656 18.363281 122.695312 22.964844 122.695312 28.621094 C 122.695312 34.277344 118.097656 38.878906 112.441406 38.878906 C 106.785156 38.878906 102.183594 34.277344 102.183594 28.621094 Z M 34.960938 42.886719 C 30.632812 42.886719 27.109375 39.363281 27.109375 35.03125 C 27.109375 30.699219 30.628906 27.179688 34.960938 27.179688 C 39.292969 27.179688 42.8125 30.699219 42.8125 35.03125 C 42.8125 39.363281 39.289062 42.886719 34.960938 42.886719 Z M 31.84375 126.675781 C 24.039062 126.675781 17.6875 120.324219 17.6875 112.515625 C 17.6875 104.710938 24.039062 98.359375 31.84375 98.359375 C 39.644531 98.359375 46 104.710938 46 112.515625 C 46 120.324219 39.648438 126.675781 31.84375 126.675781 Z M 33.535156 199.105469 C 29.207031 199.105469 25.683594 195.585938 25.683594 191.253906 C 25.683594 186.921875 29.203125 183.398438 33.535156 183.398438 C 37.867188 183.398438 41.386719 186.921875 41.386719 191.253906 C 41.386719 195.585938 37.863281 199.105469 33.535156 199.105469 Z M 122.695312 196.410156 C 122.695312 202.066406 118.097656 206.667969 112.441406 206.667969 C 106.785156 206.667969 102.183594 202.066406 102.183594 196.410156 C 102.183594 190.753906 106.785156 186.15625 112.441406 186.15625 C 118.097656 186.15625 122.695312 190.753906 122.695312 196.410156 Z M 171.757812 163.988281 C 176.085938 163.988281 179.605469 167.511719 179.605469 171.84375 C 179.605469 176.175781 176.085938 179.695312 171.757812 179.695312 C 167.429688 179.695312 163.902344 176.175781 163.902344 171.84375 C 163.902344 167.511719 167.429688 163.988281 171.757812 163.988281 Z M 112.441406 161.6875 C 84.945312 161.6875 62.578125 139.320312 62.578125 111.820312 C 62.578125 84.324219 84.945312 61.960938 112.441406 61.960938 C 139.933594 61.960938 162.300781 84.328125 162.300781 111.824219 C 162.300781 139.324219 139.933594 161.6875 112.441406 161.6875 Z M 193.035156 126.675781 C 185.230469 126.675781 178.882812 120.324219 178.882812 112.515625 C 178.882812 104.710938 185.234375 98.359375 193.035156 98.359375 C 200.839844 98.359375 207.191406 104.710938 207.191406 112.515625 C 207.191406 120.324219 200.839844 126.675781 193.035156 126.675781 Z M 193.035156 126.675781 " fill-opacity="1" fill-rule="nonzero"/></g></svg>