<svg xmlns="http://www.w3.org/2000/svg" xmlns:xlink="http://www.w3.org/1999/xlink" width="300" zoomAndPan="magnify" viewBox="0 0 224.87999 225" height="300" preserveAspectRatio="xMidYMid meet" version="1.0"><defs><clipPath id="9467a1638b"><path d="M 20.175781 10.832031 L 204.578125 10.832031 L 204.578125 213.972656 L 20.175781 213.972656 Z M 20.175781 10.832031 " clip-rule="nonzero"/></clipPath></defs><g clip-path="url(#9467a1638b)"><path fill="#ffffff" d="M 111.039062 213.738281 C 81.960938 197.25 50.703125 191.773438 23.066406 191.773438 C 21.476562 191.773438 20.1875 190.484375 20.1875 188.894531 L 20.1875 70.695312 C 20.1875 69.105469 21.476562 67.816406 23.066406 67.816406 C 26.101562 67.816406 29.183594 67.882812 32.296875 68.019531 L 32.296875 55.1875 C 32.296875 53.597656 33.585938 52.308594 35.175781 52.308594 C 48.179688 52.308594 66.355469 55.898438 82.53125 63.316406 C 83.675781 47.792969 96.636719 35.546875 112.457031 35.546875 C 128.273438 35.546875 141.234375 47.792969 142.375 63.316406 C 158.550781 55.898438 176.726562 52.308594 189.734375 52.308594 C 191.324219 52.308594 192.613281 53.597656 192.613281 55.1875 L 192.613281 68.019531 C 195.726562 67.882812 198.804688 67.816406 201.84375 67.816406 C 203.433594 67.816406 204.722656 69.105469 204.722656 70.695312 L 204.722656 188.894531 C 204.722656 190.484375 203.433594 191.773438 201.84375 191.773438 C 174.21875 191.773438 142.960938 197.25 113.878906 213.738281 C 113.449219 213.984375 112.957031 214.113281 112.460938 214.113281 C 111.960938 214.113281 111.472656 213.984375 111.039062 213.738281 Z M 32.296875 73.785156 C 30.164062 73.6875 28.042969 73.625 25.945312 73.597656 L 25.945312 186.03125 C 49.996094 186.355469 76.507812 190.789062 102.003906 202.621094 C 97.039062 197.804688 90.980469 193.726562 84.441406 190.335938 C 68.089844 181.867188 48.695312 177.753906 35.175781 177.753906 C 33.585938 177.753906 32.296875 176.464844 32.296875 174.871094 Z M 82.707031 69.777344 C 67.875 62.460938 50.855469 58.636719 38.054688 58.125 L 38.054688 172.046875 C 52.085938 172.578125 70.992188 176.886719 87.089844 185.222656 C 95.792969 189.730469 103.664062 195.417969 109.582031 202.277344 L 109.582031 133.703125 L 106.304688 133.703125 C 102.402344 133.703125 99.195312 130.496094 99.195312 126.59375 L 99.195312 124.972656 L 97.46875 124.972656 C 93.417969 124.972656 90.105469 121.652344 90.105469 117.613281 L 90.105469 116.402344 C 76.6875 108.167969 60.191406 103.242188 46.402344 101.425781 C 44.828125 101.21875 43.714844 99.769531 43.925781 98.191406 C 44.132812 96.617188 45.582031 95.507812 47.15625 95.714844 C 60.644531 97.492188 76.585938 102.121094 90.105469 109.722656 L 90.105469 107.933594 C 90.105469 104.914062 91.941406 102.304688 94.554688 101.171875 C 80.484375 91.152344 61.761719 85.269531 46.402344 83.246094 C 44.828125 83.035156 43.714844 81.589844 43.925781 80.011719 C 44.132812 78.4375 45.582031 77.324219 47.15625 77.535156 C 61.675781 79.449219 79.03125 84.675781 93.160156 93.351562 C 92.125 89.664062 90.789062 87.023438 89.429688 84.769531 C 86.480469 79.875 83.570312 76.515625 82.707031 69.777344 Z M 142.203125 69.777344 C 141.335938 76.519531 138.425781 79.878906 135.476562 84.773438 C 134.117188 87.027344 132.78125 89.671875 131.746094 93.355469 C 145.871094 84.675781 163.230469 79.449219 177.753906 77.535156 C 179.328125 77.324219 180.777344 78.4375 180.984375 80.011719 C 181.191406 81.589844 180.082031 83.035156 178.507812 83.246094 C 163.148438 85.269531 144.421875 91.152344 130.359375 101.171875 C 132.96875 102.308594 134.804688 104.917969 134.804688 107.933594 L 134.804688 109.726562 C 148.320312 102.121094 164.265625 97.492188 177.753906 95.714844 C 179.328125 95.507812 180.777344 96.617188 180.984375 98.191406 C 181.191406 99.769531 180.082031 101.21875 178.507812 101.425781 C 164.714844 103.246094 148.21875 108.167969 134.804688 116.40625 L 134.804688 117.613281 C 134.804688 121.652344 131.492188 124.972656 127.4375 124.972656 L 125.714844 124.972656 L 125.714844 126.59375 C 125.714844 130.496094 122.507812 133.703125 118.605469 133.703125 L 115.339844 133.703125 L 115.339844 202.273438 C 121.25 195.414062 129.121094 189.730469 137.820312 185.222656 C 153.917969 176.886719 172.824219 172.578125 186.851562 172.046875 L 186.851562 58.125 C 174.054688 58.636719 157.03125 62.464844 142.203125 69.777344 Z M 124.546875 100.566406 C 124.597656 100.125 124.648438 99.695312 124.703125 99.269531 C 125.835938 90.667969 128.179688 85.726562 130.542969 81.800781 C 133.253906 77.304688 136.132812 74.417969 136.625 67.707031 C 136.671875 67.027344 136.699219 66.308594 136.699219 65.550781 C 136.699219 52.164062 125.84375 41.308594 112.457031 41.308594 C 99.066406 41.308594 88.210938 52.164062 88.210938 65.550781 C 88.210938 66.308594 88.238281 67.027344 88.285156 67.703125 C 88.773438 74.414062 91.65625 77.300781 94.363281 81.796875 C 96.726562 85.71875 99.070312 90.660156 100.203125 99.265625 C 100.257812 99.6875 100.3125 100.125 100.363281 100.566406 L 109.574219 100.566406 L 109.574219 72.261719 L 99.382812 66.375 C 98.007812 65.582031 97.535156 63.820312 98.328125 62.441406 C 99.125 61.066406 100.886719 60.59375 102.261719 61.390625 L 112.457031 67.277344 L 122.644531 61.390625 C 124.019531 60.59375 125.785156 61.066406 126.578125 62.441406 C 127.375 63.816406 126.902344 65.582031 125.527344 66.375 L 115.335938 72.265625 L 115.335938 100.566406 Z M 192.613281 73.785156 L 192.613281 174.871094 C 192.613281 176.464844 191.324219 177.753906 189.734375 177.753906 C 176.214844 177.753906 156.820312 181.867188 140.472656 190.335938 C 133.929688 193.726562 127.871094 197.808594 122.910156 202.625 C 148.40625 190.789062 174.921875 186.359375 198.964844 186.03125 L 198.964844 73.597656 C 196.863281 73.625 194.746094 73.6875 192.613281 73.785156 Z M 177.753906 132.054688 C 179.328125 131.847656 180.777344 132.957031 180.984375 134.53125 C 181.191406 136.109375 180.082031 137.558594 178.507812 137.765625 C 161.46875 140.011719 140.273438 147 125.921875 159.132812 C 124.707031 160.160156 122.890625 160.007812 121.863281 158.792969 C 120.835938 157.578125 120.988281 155.761719 122.203125 154.734375 C 137.375 141.910156 159.742188 134.429688 177.753906 132.054688 Z M 177.753906 113.882812 C 179.328125 113.675781 180.777344 114.789062 180.984375 116.363281 C 181.191406 117.9375 180.082031 119.386719 178.507812 119.59375 C 161.46875 121.84375 140.273438 128.828125 125.921875 140.953125 C 124.707031 141.976562 122.890625 141.824219 121.863281 140.609375 C 120.835938 139.398438 120.992188 137.578125 122.203125 136.550781 C 137.375 123.738281 159.742188 116.261719 177.753906 113.882812 Z M 177.753906 150.234375 C 179.328125 150.027344 180.777344 151.136719 180.984375 152.714844 C 181.191406 154.289062 180.082031 155.738281 178.507812 155.945312 C 161.46875 158.195312 140.273438 165.167969 125.921875 177.300781 C 124.707031 178.328125 122.890625 178.175781 121.863281 176.964844 C 120.835938 175.75 120.988281 173.929688 122.203125 172.90625 C 137.375 160.078125 159.742188 152.613281 177.753906 150.234375 Z M 97.46875 106.328125 C 96.585938 106.328125 95.863281 107.050781 95.863281 107.933594 L 95.863281 117.613281 C 95.863281 118.492188 96.585938 119.210938 97.46875 119.210938 L 102.074219 119.210938 C 103.664062 119.210938 104.953125 120.5 104.953125 122.089844 L 104.953125 126.59375 C 104.953125 127.332031 105.5625 127.941406 106.304688 127.941406 L 118.605469 127.941406 C 119.34375 127.941406 119.953125 127.332031 119.953125 126.59375 L 119.953125 122.089844 C 119.953125 120.5 121.246094 119.210938 122.835938 119.210938 L 127.4375 119.210938 C 128.320312 119.210938 129.046875 118.492188 129.046875 117.613281 L 129.046875 107.933594 C 129.046875 107.050781 128.324219 106.328125 127.4375 106.328125 Z M 46.402344 137.765625 C 44.828125 137.558594 43.714844 136.109375 43.925781 134.53125 C 44.132812 132.957031 45.582031 131.847656 47.15625 132.054688 C 65.167969 134.429688 87.535156 141.90625 102.714844 154.734375 C 103.929688 155.757812 104.082031 157.578125 103.058594 158.792969 C 102.03125 160.007812 100.210938 160.160156 99 159.132812 C 84.636719 147 63.441406 140.011719 46.402344 137.765625 Z M 46.402344 155.945312 C 44.828125 155.738281 43.714844 154.289062 43.925781 152.714844 C 44.132812 151.136719 45.582031 150.027344 47.15625 150.234375 C 65.167969 152.613281 87.535156 160.078125 102.714844 172.902344 C 103.929688 173.929688 104.082031 175.746094 103.058594 176.960938 C 102.03125 178.175781 100.210938 178.328125 99 177.304688 C 84.636719 165.171875 63.441406 158.195312 46.402344 155.945312 Z M 46.402344 119.59375 C 44.828125 119.386719 43.714844 117.9375 43.925781 116.363281 C 44.132812 114.789062 45.582031 113.675781 47.15625 113.882812 C 65.167969 116.261719 87.535156 123.738281 102.714844 136.550781 C 103.929688 137.578125 104.082031 139.394531 103.058594 140.609375 C 102.03125 141.824219 100.214844 141.980469 99 140.953125 C 84.636719 128.832031 63.441406 121.84375 46.402344 119.59375 Z M 115.339844 22.480469 C 115.339844 24.070312 114.046875 25.359375 112.457031 25.359375 C 110.867188 25.359375 109.578125 24.070312 109.578125 22.480469 L 109.578125 13.753906 C 109.578125 12.167969 110.867188 10.875 112.457031 10.875 C 114.046875 10.875 115.339844 12.167969 115.339844 13.753906 Z M 90.632812 27.550781 C 91.425781 28.929688 90.953125 30.691406 89.578125 31.484375 C 88.203125 32.28125 86.441406 31.808594 85.644531 30.433594 L 81.28125 22.882812 C 80.488281 21.507812 80.957031 19.746094 82.335938 18.949219 C 83.710938 18.15625 85.472656 18.625 86.269531 20.003906 Z M 71.777344 44.300781 C 73.152344 45.09375 73.625 46.859375 72.828125 48.234375 C 72.035156 49.609375 70.273438 50.082031 68.894531 49.285156 L 61.347656 44.925781 C 59.96875 44.128906 59.5 42.367188 60.292969 40.992188 C 61.089844 39.613281 62.851562 39.144531 64.226562 39.9375 Z M 139.265625 30.433594 C 138.46875 31.808594 136.707031 32.28125 135.332031 31.484375 C 133.953125 30.691406 133.484375 28.929688 134.277344 27.550781 L 138.640625 20.003906 C 139.4375 18.625 141.199219 18.15625 142.574219 18.949219 C 143.949219 19.746094 144.421875 21.507812 143.628906 22.882812 Z M 156.015625 49.285156 C 154.636719 50.082031 152.875 49.609375 152.078125 48.234375 C 151.285156 46.859375 151.753906 45.09375 153.132812 44.300781 L 160.679688 39.9375 C 162.058594 39.144531 163.820312 39.613281 164.617188 40.992188 C 165.410156 42.367188 164.9375 44.128906 163.5625 44.925781 Z M 156.015625 49.285156 " fill-opacity="1" fill-rule="evenodd"/></g></svg>