<svg xmlns="http://www.w3.org/2000/svg" xmlns:xlink="http://www.w3.org/1999/xlink" width="300" zoomAndPan="magnify" viewBox="0 0 224.87999 225" height="300" preserveAspectRatio="xMidYMid meet" version="1.0"><defs><clipPath id="e41db83d0b"><path d="M 16.09375 48 L 208.742188 48 L 208.742188 185 L 16.09375 185 Z M 16.09375 48 " clip-rule="nonzero"/></clipPath><clipPath id="64c138b007"><path d="M 80 176 L 145 176 L 145 208.800781 L 80 208.800781 Z M 80 176 " clip-rule="nonzero"/></clipPath><clipPath id="ed7d04c651"><path d="M 16.09375 152 L 208.742188 152 L 208.742188 161 L 16.09375 161 Z M 16.09375 152 " clip-rule="nonzero"/></clipPath></defs><g clip-path="url(#e41db83d0b)"><path fill="#ffffff" d="M 196.382812 184.851562 L 28.484375 184.851562 C 21.875 184.851562 16.492188 179.46875 16.492188 172.859375 L 16.492188 60.925781 C 16.492188 54.3125 21.875 48.933594 28.484375 48.933594 L 60.464844 48.933594 C 62.671875 48.933594 64.464844 50.722656 64.464844 52.929688 C 64.464844 55.136719 62.671875 56.929688 60.464844 56.929688 L 28.484375 56.929688 C 26.277344 56.929688 24.488281 58.726562 24.488281 60.925781 L 24.488281 172.859375 C 24.488281 175.054688 26.277344 176.855469 28.484375 176.855469 L 196.382812 176.855469 C 198.589844 176.855469 200.378906 175.054688 200.378906 172.859375 L 200.378906 60.925781 C 200.378906 58.726562 198.589844 56.929688 196.382812 56.929688 L 164.402344 56.929688 C 162.195312 56.929688 160.40625 55.136719 160.40625 52.929688 C 160.40625 50.722656 162.195312 48.933594 164.402344 48.933594 L 196.382812 48.933594 C 202.996094 48.933594 208.375 54.3125 208.375 60.925781 L 208.375 172.859375 C 208.375 179.46875 202.996094 184.851562 196.382812 184.851562 Z M 196.382812 184.851562 " fill-opacity="1" fill-rule="nonzero"/></g><g clip-path="url(#64c138b007)"><path fill="#ffffff" d="M 140.417969 208.835938 L 84.453125 208.835938 C 82.835938 208.835938 81.375 207.859375 80.757812 206.363281 C 80.132812 204.871094 80.476562 203.152344 81.621094 202.007812 C 92.144531 191.484375 92.277344 181.300781 92.277344 180.867188 C 92.285156 178.679688 94.078125 176.855469 96.285156 176.855469 L 128.425781 176.855469 C 130.625 176.855469 132.414062 178.636719 132.421875 180.828125 C 132.429688 181.332031 132.742188 191.511719 143.246094 202.007812 C 144.390625 203.152344 144.734375 204.871094 144.109375 206.363281 C 143.496094 207.859375 142.03125 208.835938 140.417969 208.835938 Z M 93.015625 200.839844 L 131.847656 200.839844 C 127.371094 194.4375 125.59375 188.550781 124.890625 184.851562 L 99.867188 184.851562 C 99.1875 188.566406 97.460938 194.445312 93.015625 200.839844 Z M 132.421875 180.851562 L 132.503906 180.851562 Z M 132.421875 180.851562 " fill-opacity="1" fill-rule="nonzero"/></g><g clip-path="url(#ed7d04c651)"><path fill="#ffffff" d="M 204.378906 160.863281 L 20.492188 160.863281 C 18.285156 160.863281 16.492188 159.074219 16.492188 156.867188 C 16.492188 154.660156 18.285156 152.871094 20.492188 152.871094 L 204.378906 152.871094 C 206.585938 152.871094 208.375 154.660156 208.375 156.867188 C 208.375 159.074219 206.585938 160.863281 204.378906 160.863281 Z M 204.378906 160.863281 " fill-opacity="1" fill-rule="nonzero"/></g><path fill="#ffffff" d="M 142.152344 80.914062 L 82.714844 80.914062 C 80.765625 80.914062 79.09375 79.5 78.773438 77.578125 L 72.515625 40.265625 C 72.265625 38.78125 72.867188 37.285156 74.082031 36.390625 C 75.289062 35.5 76.902344 35.367188 78.246094 36.027344 L 95.125 44.449219 L 108.925781 19.046875 C 110.324219 16.472656 114.554688 16.472656 115.953125 19.046875 L 129.75 44.449219 L 146.628906 36.027344 C 147.964844 35.359375 149.578125 35.492188 150.796875 36.390625 C 152.011719 37.285156 152.609375 38.789062 152.363281 40.265625 L 146.09375 77.578125 C 145.773438 79.5 144.101562 80.914062 142.152344 80.914062 Z M 86.097656 72.917969 L 138.769531 72.917969 L 143.167969 46.6875 L 129.855469 53.324219 C 127.921875 54.3125 125.585938 53.546875 124.554688 51.652344 L 112.433594 29.328125 L 100.304688 51.652344 C 99.273438 53.539062 96.949219 54.28125 95.003906 53.324219 L 81.691406 46.6875 Z M 86.097656 72.917969 " fill-opacity="1" fill-rule="nonzero"/></svg>